<?xml version="1.0" standalone="no"?>
<!DOCTYPE svg PUBLIC "-//W3C//DTD SVG 20010904//EN"
 "http://www.w3.org/TR/2001/REC-SVG-20010904/DTD/svg10.dtd">
<svg version="1.0" xmlns="http://www.w3.org/2000/svg"
 width="24.000000pt" height="24.000000pt" viewBox="0 0 24.000000 24.000000"
 preserveAspectRatio="xMidYMid meet">

<g transform="translate(0.000000,24.000000) scale(0.100000,-0.100000)"
fill="#000000" stroke="none">
<path d="M25 194 c-12 -12 -15 -32 -13 -83 l3 -66 30 0 c27 0 30 3 33 37 3 34
5 36 23 25 15 -9 23 -9 38 0 18 11 20 9 23 -25 3 -34 6 -37 33 -37 29 0 30 1
33 54 4 75 -3 99 -34 107 -18 5 -32 0 -50 -17 l-24 -22 -23 21 c-28 26 -50 28
-72 6z m60 -24 c23 -26 43 -25 71 1 37 35 54 19 54 -51 0 -47 -3 -60 -15 -60
-11 0 -15 12 -15 45 0 49 -4 53 -32 28 -16 -14 -22 -14 -46 -2 -15 7 -30 15
-34 17 -5 2 -8 -17 -8 -42 0 -34 -4 -46 -15 -46 -12 0 -15 13 -15 58 0 32 3
62 7 65 12 12 30 7 48 -13z"/>
</g>
</svg>
