<?xml version="1.0" standalone="no"?>
<!DOCTYPE svg PUBLIC "-//W3C//DTD SVG 20010904//EN"
 "http://www.w3.org/TR/2001/REC-SVG-20010904/DTD/svg10.dtd">
<svg version="1.0" xmlns="http://www.w3.org/2000/svg"
 width="32.000000pt" height="32.000000pt" viewBox="0 0 32.000000 32.000000"
 preserveAspectRatio="xMidYMid meet">

<g transform="translate(0.000000,32.000000) scale(0.100000,-0.100000)"
fill="#000000" stroke="none">
<path d="M54 257 c-2 -7 -3 -56 -2 -108 l3 -94 105 0 105 0 0 105 0 105 -103
3 c-79 2 -104 0 -108 -11z m196 -97 l0 -90 -90 0 -90 0 0 90 0 90 90 0 90 0 0
-90z"/>
<path d="M90 215 c0 -8 7 -15 15 -15 8 0 15 7 15 15 0 8 -7 15 -15 15 -8 0
-15 -7 -15 -15z"/>
<path d="M163 183 c-20 -4 -23 -11 -23 -49 0 -32 4 -44 15 -44 10 0 15 11 15
35 0 24 5 35 15 35 10 0 15 -11 15 -35 0 -24 5 -35 15 -35 19 0 21 70 3 88
-12 12 -16 13 -55 5z"/>
<path d="M90 135 c0 -33 4 -45 15 -45 11 0 15 12 15 45 0 33 -4 45 -15 45 -11
0 -15 -12 -15 -45z"/>
</g>
</svg>
